<?xml version="1.0" encoding="UTF-8" standalone="no"?>
<svg
   viewBox="0 0 448 512"
   version="1.1"
   id="svg1"
   sodipodi:docname="github.svg"
   inkscape:version="1.3.2 (091e20ef0f, 2023-11-25, custom)"
   xmlns:inkscape="http://www.inkscape.org/namespaces/inkscape"
   xmlns:sodipodi="http://sodipodi.sourceforge.net/DTD/sodipodi-0.dtd"
   xmlns="http://www.w3.org/2000/svg"
   xmlns:svg="http://www.w3.org/2000/svg">
  <defs
     id="defs1" />
  <sodipodi:namedview
     id="namedview1"
     pagecolor="#505050"
     bordercolor="#ffffff"
     borderopacity="1"
     inkscape:showpageshadow="0"
     inkscape:pageopacity="0"
     inkscape:pagecheckerboard="1"
     inkscape:deskcolor="#d1d1d1"
     inkscape:zoom="0.61383929"
     inkscape:cx="224"
     inkscape:cy="254.95273"
     inkscape:window-width="950"
     inkscape:window-height="839"
     inkscape:window-x="960"
     inkscape:window-y="212"
     inkscape:window-maximized="1"
     inkscape:current-layer="svg1" />
  <!--!Font Awesome Free 6.5.2 by @fontawesome - https://fontawesome.com License - https://fontawesome.com/license/free Copyright 2024 Fonticons, Inc.-->
  <path
     style="fill:#ffffff;fill-rule:evenodd;stroke:none;stroke-width:0.00105619"
     d="M 142.58553,438.6305 C 96.250727,416.65979 62.078593,380.46747 42.752409,332.89544 c -10.891143,-26.8089 -13.28888,-40.6067 -13.248981,-76.24145 0.0431,-38.49658 3.454873,-54.22945 18.441135,-85.03855 25.06615,-51.53155 66.441067,-85.043314 124.865607,-101.135314 12.54286,-3.454706 20.45759,-4.133997 48.23823,-4.140102 29.61147,-0.0065 35.28283,0.543859 52.03749,5.049894 72.33756,19.454592 122.03798,69.311942 141.80829,142.256072 5.39595,19.90882 4.95975,69.73552 -0.80959,92.48085 -15.35268,60.52701 -56.15181,110.21351 -109.69682,133.59229 -17.18276,7.50235 -24.62635,8.25323 -27.55568,2.77974 -1.20564,-2.25276 -2.02369,-19.93381 -2.02369,-43.73966 0,-41.44138 -1.60848,-52.05572 -9.15155,-60.3907 -2.99095,-3.30497 -2.86438,-3.51816 2.0888,-3.51816 9.42927,0 35.16741,-6.02333 45.27268,-10.59486 20.40006,-9.22883 31.82216,-24.51667 37.17088,-49.75109 5.71623,-26.96845 2.44684,-49.16085 -9.56985,-64.95923 -6.51145,-8.56062 -6.54113,-8.69772 -5.61972,-25.9502 0.53565,-10.0296 -0.066,-21.77789 -1.4265,-27.85745 l -2.35277,-10.51334 h -8.60822 c -6.54727,0 -13.50671,2.50062 -29.06797,10.44451 l -20.45974,10.4445 -12.33366,-2.58413 c -16.27803,-3.41055 -55.90185,-3.30758 -72.39717,0.18814 l -13.1457,2.78587 -11.17289,-6.72797 c -14.19325,-8.54672 -30.18635,-14.55092 -38.75861,-14.55092 -6.0467,0 -6.87108,0.69198 -8.73356,7.33091 -3.66092,13.04959 -4.50412,26.97972 -2.26509,37.41996 2.11807,9.87624 2.001,10.4428 -3.60107,17.42824 -8.648,10.78353 -11.810107,21.91656 -11.810107,41.58063 0,52.25616 20.174147,76.46365 70.091887,84.1052 8.81076,1.34877 15.73326,2.9566 15.38333,3.57297 -1.47013,2.58942 -8.79513,18.9727 -9.82173,21.96751 -0.69819,2.03676 -5.13915,4.15326 -11.87978,5.66177 -19.21083,4.29919 -31.63035,-1.75733 -45.72511,-22.29837 -9.78552,-14.26094 -35.528085,-24.58517 -38.965521,-15.62736 -0.882156,2.29888 1.701324,5.86053 8.862636,12.21819 6.650988,5.90458 12.947736,14.29978 18.411935,24.54788 12.46955,23.3866 23.55901,29.20262 53.50108,28.05942 l 16.39185,-0.62586 -0.005,24.07615 c -0.002,13.24188 -0.91523,25.77774 -2.02825,27.85745 -3.1174,5.82491 -12.59021,4.6234 -30.49882,-3.86837 z"
     id="path2" />
</svg>
