<?xml version="1.0" encoding="UTF-8" standalone="no"?>
<svg
   viewBox="0 0 512 512"
   version="1.1"
   id="svg1"
   sodipodi:docname="mail.svg"
   inkscape:version="1.3.2 (091e20ef0f, 2023-11-25, custom)"
   xmlns:inkscape="http://www.inkscape.org/namespaces/inkscape"
   xmlns:sodipodi="http://sodipodi.sourceforge.net/DTD/sodipodi-0.dtd"
   xmlns="http://www.w3.org/2000/svg"
   xmlns:svg="http://www.w3.org/2000/svg">
  <defs
     id="defs1" />
  <sodipodi:namedview
     id="namedview1"
     pagecolor="#505050"
     bordercolor="#ffffff"
     borderopacity="1"
     inkscape:showpageshadow="0"
     inkscape:pageopacity="0"
     inkscape:pagecheckerboard="1"
     inkscape:deskcolor="#d1d1d1"
     inkscape:zoom="0.61523438"
     inkscape:cx="255.1873"
     inkscape:cy="255.1873"
     inkscape:window-width="950"
     inkscape:window-height="680"
     inkscape:window-x="960"
     inkscape:window-y="371"
     inkscape:window-maximized="1"
     inkscape:current-layer="svg1" />
  <!--!Font Awesome Free 6.5.2 by @fontawesome - https://fontawesome.com License - https://fontawesome.com/license/free Copyright 2024 Fonticons, Inc.-->
  <path
     d="m 68.799985,53.230496 c -23.85,0 -43.2,19.350004 -43.2,43.200004 0,13.59 6.39,26.37 17.28,34.56 l 195.840005,146.88 c 10.26,7.65 24.3,7.65 34.56,0 l 195.84,-146.88 c 10.89,-8.19 17.28,-20.97 17.28,-34.56 0,-23.85 -19.35,-43.200004 -43.2,-43.200004 z m -43.2,100.800004 v 187.2 c 0,31.77 25.83,57.6 57.6,57.6 H 428.79999 c 31.77,0 57.6,-25.83 57.6,-57.6 v -187.2 l -195.84,146.88 c -20.52,15.39 -48.6,15.39 -69.12,0 z"
     id="path1"
     style="stroke-width:0.9" />
  <path
     style="fill:#b3b3b3;fill-rule:evenodd;stroke:#666666;stroke-width:8.14487"
     d="M 73.362984,397.11316 C 56.981941,394.36452 39.76984,381.38307 32.339879,366.17334 26.062692,353.32341 25.462416,342.03601 25.913286,245.32989 l 0.418128,-89.68346 100.333396,75.22643 c 110.8589,83.11809 108.66348,81.73075 129.33518,81.73075 20.67169,0 18.47628,1.38734 129.33517,-81.73075 l 100.3334,-75.22643 0.41813,89.68346 c 0.45046,96.62055 -0.15274,108.0003 -6.40299,120.7952 -7.82909,16.02693 -24.32044,28.12583 -42.36425,31.08056 -10.60824,1.73715 -353.57186,1.64999 -363.956466,-0.0925 z"
     id="path9" />
  <path
     style="fill:#cccccc;fill-rule:evenodd;stroke:#666666;stroke-width:8.14487"
     d="M 247.22284,281.32097 C 242.14785,279.55167 44.761932,132.0834 37.74349,124.81761 26.895201,113.58702 23.670512,94.75569 30.054467,79.91579 34.019265,70.69937 44.568961,60.651225 54.166903,56.949704 c 7.037691,-2.714142 13.569964,-2.804922 201.833087,-2.804922 188.26311,0 194.79538,0.09078 201.83307,2.804922 9.59796,3.701521 20.14764,13.749666 24.11244,22.966086 6.38397,14.8399 3.15927,33.67123 -7.68902,44.90182 -7.6698,7.94011 -204.66345,154.80012 -210.06335,156.60357 -5.96297,1.99151 -11.05672,1.96142 -16.97029,-0.10021 z"
     id="path10" />
</svg>
