<?xml version="1.0" encoding="UTF-8" standalone="no"?>
<svg
   viewBox="0 0 448 512"
   version="1.1"
   id="svg1"
   sodipodi:docname="rss.svg"
   inkscape:version="1.3.2 (091e20ef0f, 2023-11-25, custom)"
   xmlns:inkscape="http://www.inkscape.org/namespaces/inkscape"
   xmlns:sodipodi="http://sodipodi.sourceforge.net/DTD/sodipodi-0.dtd"
   xmlns="http://www.w3.org/2000/svg"
   xmlns:svg="http://www.w3.org/2000/svg">
  <defs
     id="defs1" />
  <sodipodi:namedview
     id="namedview1"
     pagecolor="#505050"
     bordercolor="#ffffff"
     borderopacity="1"
     inkscape:showpageshadow="0"
     inkscape:pageopacity="0"
     inkscape:pagecheckerboard="1"
     inkscape:deskcolor="#d1d1d1"
     inkscape:zoom="0.61383929"
     inkscape:cx="223.18545"
     inkscape:cy="256.58182"
     inkscape:window-width="950"
     inkscape:window-height="521"
     inkscape:window-x="960"
     inkscape:window-y="530"
     inkscape:window-maximized="1"
     inkscape:current-layer="svg1" />
  <!--!Font Awesome Free 6.5.2 by @fontawesome - https://fontawesome.com License - https://fontawesome.com/license/free Copyright 2024 Fonticons, Inc.-->
  <path
     d="M 80,54.4 C 48.23,54.4 22.4,80.23 22.4,112 v 288 c 0,31.77 25.83,57.6 57.6,57.6 h 288 c 31.77,0 57.6,-25.83 57.6,-57.6 V 112 C 425.6,80.23 399.77,54.4 368,54.4 Z m 28.8,93.6 c 0,-11.97 9.63,-21.6 21.6,-21.6 123.3,0 223.2,99.9 223.2,223.2 0,11.97 -9.63,21.6 -21.6,21.6 -11.97,0 -21.6,-9.63 -21.6,-21.6 0,-99.45 -80.55,-180 -180,-180 -11.97,0 -21.6,-9.63 -21.6,-21.6 z m 0,86.4 c 0,-11.97 9.63,-21.6 21.6,-21.6 75.51,0 136.8,61.29 136.8,136.8 0,11.97 -9.63,21.6 -21.6,21.6 -11.97,0 -21.6,-9.63 -21.6,-21.6 0,-51.66 -41.94,-93.6 -93.6,-93.6 -11.97,0 -21.6,-9.63 -21.6,-21.6 z m 0,108 a 28.8,28.8 0 1 1 57.6,0 28.8,28.8 0 1 1 -57.6,0 z"
     id="path1"
     style="fill:#d45500;stroke-width:0.9" />
  <path
     style="fill:#000000;fill-rule:evenodd;stroke-width:0.00129047"
     d="m 129.70248,369.39492 c -6.69302,-2.00897 -14.31938,-8.72523 -17.25968,-15.19999 -7.3523,-16.19026 1.40535,-34.31186 18.8212,-38.94538 11.7329,-3.12156 25.38968,3.27953 31.1699,14.60971 10.88514,21.33663 -9.86426,46.39943 -32.73142,39.53566 z"
     id="path2" />
  <path
     style="fill:#000000;fill-rule:evenodd;stroke-width:0.00129047"
     d="m 237.92872,368.8161 c -9.41103,-4.18277 -13.81549,-12.75545 -13.89374,-27.04228 -0.0509,-9.29942 -3.87163,-22.84824 -9.98261,-35.4 -7.83309,-16.08892 -24.796,-32.77585 -41.4511,-40.77671 -12.6773,-6.08998 -30.07737,-10.53539 -41.27546,-10.54513 -15.42683,-0.0134 -26.33212,-16.13936 -19.62803,-29.02443 4.58965,-8.82116 8.97393,-11.23677 21.42037,-11.80199 30.28356,-1.37525 65.17648,12.90272 90.63771,37.08839 25.27699,24.01068 40.13458,55.53018 42.1954,89.51515 0.98166,16.18842 -1.32213,21.6855 -11.21405,26.75781 -7.33248,3.75991 -10.58012,3.9974 -16.80849,1.22919 z"
     id="path3" />
  <path
     style="fill:#000000;fill-rule:evenodd;stroke-width:0.00129047"
     d="m 324.36076,368.82349 c -6.65799,-2.90004 -12.09575,-10.1853 -12.96621,-17.37154 -0.41468,-3.42338 -1.1106,-11.89779 -1.54651,-18.83205 -2.46116,-39.15077 -21.56013,-80.15102 -51.35092,-110.23642 -31.20991,-31.51853 -68.35264,-48.49433 -115.75796,-52.90628 -21.30115,-1.98246 -25.28282,-3.51462 -30.23349,-11.63395 -5.12157,-8.39961 -3.18083,-18.13473 5.17225,-25.94507 3.48917,-3.26245 5.40954,-3.72031 17.46648,-4.16443 9.10844,-0.33551 19.45603,0.50474 31.58537,2.56482 80.65948,13.69939 146.89362,69.56334 173.66449,146.47408 6.34737,18.2355 10.71484,40.21992 12.02931,60.55159 0.90446,13.98984 0.71149,15.86651 -2.22294,21.61849 -2.33637,4.57966 -4.89057,7.0602 -9.35865,9.08872 -7.22414,3.27978 -10.41746,3.43325 -16.48122,0.79204 z"
     id="path4" />
  <path
     style="fill:#999999;fill-rule:evenodd;stroke:none;stroke-width:0.00143386"
     d="m 238.11914,367.3003 c -8.15154,-3.64956 -13.21192,-12.85649 -13.26882,-24.14151 -0.13964,-27.69515 -22.09957,-62.51648 -48.10555,-76.27979 -11.29588,-5.97819 -31.36642,-11.92627 -40.2427,-11.92627 -14.00373,0 -25.7323,-9.37451 -25.7178,-20.55593 0.007,-5.44365 5.01297,-14.39634 9.27401,-16.58584 5.60098,-2.87803 16.60764,-3.57743 29.05447,-1.84624 63.13771,8.78165 114.68014,65.627 115.43964,127.31658 0.16132,13.10303 -0.14105,14.51941 -3.89784,18.25874 -2.24,2.22959 -6.67472,5.13265 -9.85494,6.45125 -5.26834,2.18439 -6.39525,2.12299 -12.68047,-0.69099 z"
     id="path7" />
  <path
     style="fill:#999999;fill-rule:evenodd;stroke:none;stroke-width:0.00143386"
     d="m 324.49774,367.31676 c -9.18866,-4.11387 -11.73192,-9.98321 -13.67482,-31.55873 -3.04044,-33.76346 -12.61995,-61.51333 -30.19106,-87.45718 -30.83834,-45.53302 -74.66874,-71.55197 -133.01648,-78.96231 -25.32182,-3.21595 -29.41925,-4.58608 -33.51019,-11.20536 -4.17248,-6.75121 -4.22155,-13.28613 -0.14991,-19.96375 4.92054,-8.06986 8.78711,-9.38933 26.96108,-9.20049 87.26514,0.90676 173.05998,66.72672 200.31628,153.67833 6.05422,19.31389 11.10874,50.53696 10.35126,63.94251 -0.5461,9.6645 -1.23182,11.65003 -5.49624,15.91445 -7.02991,7.02989 -13.4439,8.45961 -21.58992,4.81253 z"
     id="path8" />
  <path
     style="fill:#999999;fill-rule:evenodd;stroke:#999999;stroke-width:5.56778619"
     d="m 122.70171,364.29114 c -16.92363,-12.25941 -15.19234,-36.72948 3.22961,-45.6474 11.20834,-5.42586 20.37671,-4.04714 29.44023,4.42717 8.99849,8.41352 11.1208,18.16103 6.47967,29.76035 -6.22198,15.55026 -25.6516,21.23772 -39.14951,11.45988 z"
     id="path9" />
  <path
     style="fill:#999999;fill-rule:evenodd;stroke:#999999;stroke-width:9.07043"
     d="m 238.66182,365.95807 c -8.92435,-5.51252 -10.78005,-9.01407 -13.13628,-24.78698 -1.23289,-8.25307 -3.0785,-17.64956 -4.10138,-20.88107 -6.07015,-19.1771 -26.80524,-44.74455 -43.41222,-53.52953 -11.44649,-6.05511 -27.24923,-10.98186 -40.35206,-12.58038 -11.41401,-1.39249 -17.13861,-4.01332 -21.85058,-10.00362 -7.04275,-8.95341 -1.63881,-24.20474 9.6307,-27.18032 8.09873,-2.13838 28.1714,-0.27574 41.54182,3.85485 53.88429,16.64676 92.89207,64.50975 96.4265,118.31639 1.1462,17.4493 -0.38874,21.20145 -10.85815,26.54254 -7.82698,3.99303 -7.82567,3.99301 -13.88835,0.24812 z"
     id="path10" />
  <path
     style="fill:#999999;fill-rule:evenodd;stroke:#999999;stroke-width:9.07043"
     d="m 324.97047,365.94227 c -3.81991,-1.73526 -7.39806,-4.83754 -8.58546,-7.44361 -1.11975,-2.4576 -3.48224,-14.48153 -5.24999,-26.71986 -1.76772,-12.23835 -4.72506,-27.7004 -6.57183,-34.36012 -10.55757,-38.07197 -39.17975,-77.14316 -72.3528,-98.76645 -25.11045,-16.36782 -46.49376,-23.98658 -83.96312,-29.91562 -26.05592,-4.12301 -30.33913,-5.61731 -33.47319,-11.6779 -5.16165,-9.98155 -1.39927,-21.1872 8.50295,-25.32461 16.83007,-7.03205 70.04909,3.09364 102.7121,19.54247 32.21235,16.22188 68.12171,47.58252 87.19335,76.14837 22.78585,34.12905 37.07207,78.66397 37.07207,115.56608 0,13.83024 -2.48533,18.94259 -11.46659,23.58698 -5.78611,2.99212 -5.83651,2.98981 -13.81749,-0.63573 z"
     id="path11" />
</svg>
