<?xml version="1.0" encoding="UTF-8" standalone="no"?>
<!DOCTYPE svg PUBLIC "-//W3C//DTD SVG 1.1//EN"
 "http://www.w3.org/Graphics/SVG/1.1/DTD/svg11.dtd">
<!-- Generated by graphviz version 12.2.1 (0)
 -->
<!-- Title: WebRTCArchitecture Pages: 1 -->
<svg width="791pt" height="188pt"
 viewBox="0.00 0.00 790.63 188.00" xmlns="http://www.w3.org/2000/svg" xmlns:xlink="http://www.w3.org/1999/xlink">
<g id="graph0" class="graph" transform="scale(1 1) rotate(0) translate(4 184)">
<title>WebRTCArchitecture</title>
<polygon fill="white" stroke="none" points="-4,4 -4,-184 786.63,-184 786.63,4 -4,4"/>
<!-- WebRTC -->
<g id="node1" class="node">
<title>WebRTC</title>
<polygon fill="lavender" stroke="black" points="435.31,-180 336.63,-162 435.31,-144 533.99,-162 435.31,-180"/>
<text text-anchor="middle" x="435.31" y="-156.95" font-family="Times,serif" font-size="14.00">WebRTC Agent</text>
</g>
<!-- SCTP -->
<g id="node2" class="node">
<title>SCTP</title>
<polygon fill="lavender" stroke="black" points="81.31,-108 0,-90 81.31,-72 162.62,-90 81.31,-108"/>
<text text-anchor="middle" x="81.31" y="-84.95" font-family="Times,serif" font-size="14.00">SCTP Agent</text>
</g>
<!-- WebRTC&#45;&gt;SCTP -->
<g id="edge1" class="edge">
<title>WebRTC&#45;&gt;SCTP</title>
<path fill="none" stroke="black" d="M389.39,-151.92C323.73,-138.94 203.33,-115.13 134.08,-101.44"/>
<polygon fill="black" stroke="black" points="134.99,-98.05 124.5,-99.54 133.63,-104.91 134.99,-98.05"/>
</g>
<!-- DTLS -->
<g id="node3" class="node">
<title>DTLS</title>
<polygon fill="lavender" stroke="black" points="263.31,-108 180.55,-90 263.31,-72 346.06,-90 263.31,-108"/>
<text text-anchor="middle" x="263.31" y="-84.95" font-family="Times,serif" font-size="14.00">DTLS Agent</text>
</g>
<!-- WebRTC&#45;&gt;DTLS -->
<g id="edge2" class="edge">
<title>WebRTC&#45;&gt;DTLS</title>
<path fill="none" stroke="black" d="M405.74,-148.97C376.96,-137.25 333.07,-119.39 301.63,-106.6"/>
<polygon fill="black" stroke="black" points="303.05,-103.4 292.47,-102.87 300.41,-109.88 303.05,-103.4"/>
</g>
<!-- ICE -->
<g id="node4" class="node">
<title>ICE</title>
<polygon fill="lavender" stroke="black" points="435.31,-108 364.13,-90 435.31,-72 506.48,-90 435.31,-108"/>
<text text-anchor="middle" x="435.31" y="-84.95" font-family="Times,serif" font-size="14.00">ICE Agent</text>
</g>
<!-- WebRTC&#45;&gt;ICE -->
<g id="edge3" class="edge">
<title>WebRTC&#45;&gt;ICE</title>
<path fill="none" stroke="black" d="M435.31,-143.7C435.31,-136.41 435.31,-127.73 435.31,-119.54"/>
<polygon fill="black" stroke="black" points="438.81,-119.62 435.31,-109.62 431.81,-119.62 438.81,-119.62"/>
</g>
<!-- SRTP -->
<g id="node5" class="node">
<title>SRTP</title>
<polygon fill="lavender" stroke="black" points="605.31,-108 524.72,-90 605.31,-72 685.89,-90 605.31,-108"/>
<text text-anchor="middle" x="605.31" y="-84.95" font-family="Times,serif" font-size="14.00">SRTP Agent</text>
</g>
<!-- WebRTC&#45;&gt;SRTP -->
<g id="edge4" class="edge">
<title>WebRTC&#45;&gt;SRTP</title>
<path fill="none" stroke="black" d="M464.53,-148.97C492.98,-137.25 536.35,-119.39 567.43,-106.6"/>
<polygon fill="black" stroke="black" points="568.56,-109.92 576.47,-102.87 565.89,-103.45 568.56,-109.92"/>
</g>
<!-- SDP -->
<g id="node6" class="node">
<title>SDP</title>
<polygon fill="lavender" stroke="black" points="743.31,-108 703.98,-90 743.31,-72 782.63,-90 743.31,-108"/>
<text text-anchor="middle" x="743.31" y="-84.95" font-family="Times,serif" font-size="14.00">SDP</text>
</g>
<!-- WebRTC&#45;&gt;SDP -->
<g id="edge5" class="edge">
<title>WebRTC&#45;&gt;SDP</title>
<path fill="none" stroke="black" d="M486.13,-152.8C538.91,-143.78 623.62,-127.9 695.31,-108 700.91,-106.44 706.81,-104.56 712.48,-102.63"/>
<polygon fill="black" stroke="black" points="713.27,-106.06 721.53,-99.42 710.93,-99.46 713.27,-106.06"/>
</g>
<!-- TURN -->
<g id="node7" class="node">
<title>TURN</title>
<polygon fill="lavender" stroke="black" points="236.31,-36 150.66,-18 236.31,0 321.96,-18 236.31,-36"/>
<text text-anchor="middle" x="236.31" y="-12.95" font-family="Times,serif" font-size="14.00">TURN Agent</text>
</g>
<!-- ICE&#45;&gt;TURN -->
<g id="edge6" class="edge">
<title>ICE&#45;&gt;TURN</title>
<path fill="none" stroke="black" d="M406.37,-78.82C372.62,-66.95 316.55,-47.23 278.08,-33.7"/>
<polygon fill="black" stroke="black" points="279.27,-30.4 268.67,-30.38 276.94,-37 279.27,-30.4"/>
</g>
<!-- STUN -->
<g id="node8" class="node">
<title>STUN</title>
<polygon fill="lavender" stroke="black" points="437.31,-36 340.08,-18 437.31,0 534.54,-18 437.31,-36"/>
<text text-anchor="middle" x="437.31" y="-12.95" font-family="Times,serif" font-size="14.00">STUN Protocol</text>
</g>
<!-- ICE&#45;&gt;STUN -->
<g id="edge7" class="edge">
<title>ICE&#45;&gt;STUN</title>
<path fill="none" stroke="black" d="M435.8,-71.7C436.01,-64.41 436.26,-55.73 436.49,-47.54"/>
<polygon fill="black" stroke="black" points="439.99,-47.71 436.78,-37.62 432.99,-47.51 439.99,-47.71"/>
</g>
<!-- RTCP -->
<g id="node9" class="node">
<title>RTCP</title>
<polygon fill="lavender" stroke="black" points="603.31,-36 556.02,-18 603.31,0 650.6,-18 603.31,-36"/>
<text text-anchor="middle" x="603.31" y="-12.95" font-family="Times,serif" font-size="14.00">RTCP</text>
</g>
<!-- SRTP&#45;&gt;RTCP -->
<g id="edge8" class="edge">
<title>SRTP&#45;&gt;RTCP</title>
<path fill="none" stroke="black" d="M604.81,-71.7C604.6,-64.41 604.36,-55.73 604.12,-47.54"/>
<polygon fill="black" stroke="black" points="607.62,-47.51 603.84,-37.62 600.63,-47.71 607.62,-47.51"/>
</g>
<!-- RTP -->
<g id="node10" class="node">
<title>RTP</title>
<polygon fill="lavender" stroke="black" points="707.31,-36 668.7,-18 707.31,0 745.91,-18 707.31,-36"/>
<text text-anchor="middle" x="707.31" y="-12.95" font-family="Times,serif" font-size="14.00">RTP</text>
</g>
<!-- SRTP&#45;&gt;RTP -->
<g id="edge9" class="edge">
<title>SRTP&#45;&gt;RTP</title>
<path fill="none" stroke="black" d="M624.49,-75.83C640.97,-64.52 664.83,-48.15 682.71,-35.88"/>
<polygon fill="black" stroke="black" points="684.68,-38.77 690.94,-30.23 680.72,-33 684.68,-38.77"/>
</g>
</g>
</svg>
